<?xml version="1.0" encoding="UTF-8" standalone="no"?><!DOCTYPE svg PUBLIC "-//W3C//DTD SVG 1.1//EN" "http://www.w3.org/Graphics/SVG/1.1/DTD/svg11.dtd"><svg width="100%" height="100%" viewBox="0 0 128 128" version="1.1" xmlns="http://www.w3.org/2000/svg" xmlns:xlink="http://www.w3.org/1999/xlink" xml:space="preserve" style="fill-rule:evenodd;clip-rule:evenodd;stroke-linejoin:round;stroke-miterlimit:1.41421;"><path d="M42.83,93.283l-26.681,-77.283l-12.149,0l-0.392,-0.019c-0.129,-0.019 -0.26,-0.032 -0.388,-0.058c-0.514,-0.102 -1.007,-0.306 -1.442,-0.597c-0.327,-0.218 -0.621,-0.485 -0.87,-0.788c-0.249,-0.304 -0.453,-0.644 -0.604,-1.007c-0.2,-0.484 -0.304,-1.007 -0.304,-1.531c0,-0.655 0.163,-1.308 0.472,-1.886c0.185,-0.346 0.422,-0.665 0.7,-0.942c0.556,-0.557 1.275,-0.942 2.048,-1.095c0.343,-0.068 0.432,-0.06 0.78,-0.077l15,0c0.127,0.006 0.254,0.012 0.38,0.018c0.126,0.018 0.253,0.03 0.377,0.054c0.25,0.049 0.495,0.12 0.731,0.215c0.828,0.332 1.532,0.942 1.977,1.715c0.17,0.294 0.191,0.379 0.316,0.693c0,0 3.618,10.478 5.053,14.635c0.345,0.999 1.286,1.67 2.343,1.67c13.038,0 93.823,0 93.823,0l0.387,0.019c0.128,0.018 0.256,0.031 0.383,0.056c0.381,0.074 0.75,0.205 1.093,0.385c0.343,0.181 0.659,0.411 0.936,0.682c0.648,0.635 1.067,1.487 1.173,2.388c0.046,0.385 0.035,0.777 -0.032,1.158c-0.022,0.128 -0.056,0.252 -0.085,0.378l-13,47c-0.038,0.118 -0.071,0.238 -0.115,0.353c-0.088,0.232 -0.198,0.455 -0.327,0.667c-0.52,0.85 -1.355,1.485 -2.312,1.76c-0.239,0.068 -0.483,0.114 -0.73,0.137c-0.123,0.011 -0.247,0.011 -0.371,0.017c0,0 -48.859,0 -60.93,0c-0.616,0 -1.193,0.298 -1.551,0.799c-0.357,0.501 -0.45,1.144 -0.249,1.726c0.682,1.974 1.6,4.636 2.138,6.192c0.265,0.768 0.988,1.283 1.8,1.283c8.293,0 51.792,0 51.792,0l0.145,0.007c0.074,-0.002 0.149,-0.004 0.224,-0.006c0.177,-0.001 0.176,-0.001 0.353,0c0.582,0.012 1.162,0.054 1.739,0.138c1.233,0.181 2.439,0.54 3.573,1.06c1.307,0.599 2.514,1.411 3.567,2.39c0.928,0.863 1.735,1.854 2.397,2.934c0.702,1.147 1.239,2.395 1.591,3.693c0.594,2.188 0.661,4.515 0.199,6.735c-0.298,1.434 -0.817,2.82 -1.537,4.096c-0.732,1.296 -1.67,2.475 -2.772,3.475c-1.19,1.08 -2.57,1.949 -4.063,2.544c-1.546,0.616 -3.206,0.934 -4.871,0.934c-1.664,0 -3.324,-0.318 -4.871,-0.934c-1.493,-0.595 -2.872,-1.464 -4.062,-2.544c-1.102,-1 -2.04,-2.179 -2.772,-3.475c-0.692,-1.226 -1.198,-2.554 -1.502,-3.928c-0.488,-2.214 -0.447,-4.542 0.12,-6.738c0,0 0,0 0,0c0.148,-0.57 0.023,-1.177 -0.338,-1.643c-0.36,-0.465 -0.916,-0.738 -1.505,-0.738c-7.496,0 -28.118,0 -28.855,0c-0.004,0 -0.008,0.002 -0.011,0.006c-0.002,0.004 -0.003,0.008 -0.001,0.012l0.001,0.003c0.325,0.708 0.59,1.443 0.795,2.195c0.593,2.188 0.661,4.515 0.199,6.735c-0.298,1.434 -0.818,2.82 -1.538,4.096c-0.732,1.296 -1.669,2.475 -2.771,3.475c-1.19,1.08 -2.57,1.949 -4.063,2.544c-1.522,0.607 -3.155,0.924 -4.793,0.934l-0.078,0c-1.665,0 -3.325,-0.318 -4.871,-0.934c-1.493,-0.595 -2.873,-1.464 -4.063,-2.544c-1.102,-1 -2.039,-2.179 -2.771,-3.475c-0.72,-1.276 -1.24,-2.662 -1.538,-4.096c-0.462,-2.22 -0.394,-4.547 0.199,-6.735c0.353,-1.298 0.889,-2.546 1.592,-3.693c0.661,-1.08 1.469,-2.071 2.397,-2.934c1.004,-0.933 2.148,-1.715 3.385,-2.306Zm61.645,6.718c-0.229,0.004 -0.456,0.021 -0.683,0.054c-0.483,0.071 -0.956,0.212 -1.4,0.415c-0.491,0.226 -0.947,0.527 -1.352,0.886c-0.421,0.373 -0.787,0.807 -1.086,1.283c-0.338,0.539 -0.591,1.13 -0.75,1.745c-0.304,1.174 -0.269,2.437 0.104,3.591c0.186,0.577 0.457,1.126 0.804,1.624c0.267,0.383 0.578,0.735 0.928,1.045c0.454,0.403 0.974,0.733 1.535,0.965c0.602,0.249 1.249,0.382 1.9,0.39c0.699,0.01 1.395,-0.123 2.041,-0.39c0.561,-0.232 1.081,-0.562 1.535,-0.965c0.368,-0.325 0.693,-0.698 0.969,-1.104c0.341,-0.502 0.606,-1.056 0.785,-1.636c0.36,-1.158 0.381,-2.422 0.063,-3.593c-0.166,-0.612 -0.426,-1.199 -0.77,-1.732c-0.304,-0.472 -0.674,-0.901 -1.099,-1.269c-0.408,-0.353 -0.867,-0.648 -1.361,-0.867c-0.595,-0.264 -1.233,-0.409 -1.883,-0.439c-0.093,-0.003 -0.186,-0.004 -0.28,-0.003Zm-56.01,-0.001c-0.012,0 -0.024,0 -0.035,0.001c-0.229,0.004 -0.457,0.021 -0.683,0.054c-0.484,0.071 -0.956,0.212 -1.4,0.415c-0.492,0.226 -0.948,0.527 -1.353,0.886c-0.349,0.31 -0.661,0.662 -0.928,1.045c-0.346,0.498 -0.617,1.047 -0.803,1.624c-0.374,1.154 -0.408,2.417 -0.105,3.591c0.159,0.615 0.412,1.206 0.751,1.745c0.299,0.476 0.664,0.91 1.085,1.283c0.455,0.403 0.974,0.733 1.536,0.965c0.602,0.249 1.249,0.382 1.9,0.39c0.022,0.001 0.043,0.001 0.065,0.001l0.033,0c0.665,-0.004 1.327,-0.136 1.942,-0.391c0.562,-0.232 1.081,-0.562 1.536,-0.965c0.367,-0.325 0.692,-0.698 0.968,-1.104c0.341,-0.502 0.606,-1.056 0.786,-1.636c0.352,-1.134 0.379,-2.37 0.082,-3.52c-0.165,-0.639 -0.431,-1.251 -0.789,-1.805c-0.304,-0.472 -0.674,-0.901 -1.099,-1.269c-0.409,-0.353 -0.868,-0.648 -1.361,-0.867c-0.596,-0.264 -1.234,-0.409 -1.884,-0.439c-0.07,-0.002 -0.139,-0.003 -0.209,-0.004l-0.035,0Zm-9.007,-41c0,0 3.482,10.087 4.736,13.717c0.265,0.768 0.987,1.283 1.799,1.283c3.88,0 14.744,0 14.744,0l-0.958,-15l-20.321,0Zm28.337,0l0.958,15l15.494,0l0.958,-15l-17.41,0Zm44.31,0l-18.884,0l-0.958,15c0,0 10.359,0 14.244,0c0.856,0 1.607,-0.571 1.835,-1.396c1.03,-3.723 3.763,-13.604 3.763,-13.604Zm-78.261,-24c-0.616,0 -1.193,0.298 -1.551,0.799c-0.357,0.501 -0.45,1.144 -0.249,1.726c1.556,4.509 4.652,13.475 4.652,13.475l22.572,0l-1.021,-16c0,0 -17.572,0 -24.403,0Zm32.419,0l1.022,16l18.43,0l1.022,-16l-20.474,0Zm28.49,0l-1.021,16l20.586,0c0,0 2.522,-9.119 3.758,-13.588c0.159,-0.574 0.041,-1.188 -0.32,-1.661c-0.36,-0.473 -0.92,-0.751 -1.515,-0.751c-6.146,0 -21.488,0 -21.488,0Z" style="fill:#f8f8f8;"/></svg>