<?xml version="1.0" encoding="UTF-8" standalone="no"?><!DOCTYPE svg PUBLIC "-//W3C//DTD SVG 1.1//EN" "http://www.w3.org/Graphics/SVG/1.1/DTD/svg11.dtd"><svg width="100px" height="60px" version="1.1" xmlns="http://www.w3.org/2000/svg" xmlns:xlink="http://www.w3.org/1999/xlink" xml:space="preserve" style="fill-rule:evenodd;clip-rule:evenodd;stroke-linejoin:round;stroke-miterlimit:1.41421;"><rect id="Artboard1" x="0" y="0" width="100" height="60" style="fill:none;"/><g><circle cx="64.961" cy="13.499" r="2.295" style="fill:#ff931e;"/><circle cx="64.091" cy="8.15" r="2.58" style="fill:#fcee21;"/><circle cx="68.87" cy="9.875" r="1.883" style="fill:#8cc63f;"/><circle cx="59.232" cy="11.537" r="2.801" style="fill:#8cc63f;"/><circle cx="59.549" cy="6.473" r="1.678" style="fill:#ff931e;"/><circle cx="54.69" cy="7.976" r="2.39" style="fill:#fcee21;"/><circle cx="53.867" cy="13.183" r="2.39" style="fill:#3fa9f5;"/><circle cx="50.322" cy="9.764" r="1.788" style="fill:#ff931e;"/><circle cx="46.92" cy="13.499" r="2.675" style="fill:#3fa9f5;"/><circle cx="50.845" cy="16.506" r="1.598" style="fill:#ff931e;"/><path d="M44.798,19.522c0.258,-1.533 1.713,-2.568 3.246,-2.31c1.533,0.258 2.568,1.712 2.31,3.246c-0.258,1.533 -1.713,2.568 -3.246,2.309c-1.533,-0.258 -2.568,-1.712 -2.31,-3.245Z" style="fill:#8cc63f;"/><circle cx="43.501" cy="17.155" r="1.361" style="fill:#3fa9f5;"/><path d="M40.961,21.559c0.172,-1.025 1.145,-1.717 2.17,-1.544c1.025,0.172 1.717,1.144 1.544,2.169c-0.173,1.025 -1.145,1.717 -2.17,1.545c-1.025,-0.173 -1.717,-1.145 -1.544,-2.17Z" style="fill:#ff931e;"/><path d="M46.869,24.555c0.154,-0.913 1.02,-1.529 1.933,-1.375c0.913,0.153 1.529,1.019 1.376,1.932c-0.154,0.913 -1.02,1.53 -1.933,1.376c-0.913,-0.154 -1.529,-1.02 -1.376,-1.933Z" style="fill:#3fa9f5;"/><path d="M41.455,26.537c0.252,-1.499 1.674,-2.51 3.172,-2.258c1.499,0.252 2.511,1.674 2.258,3.173c-0.252,1.498 -1.674,2.51 -3.172,2.258c-1.499,-0.253 -2.511,-1.674 -2.258,-3.173Z" style="fill:#3fa9f5;"/><path d="M44.744,23.127c0.069,-0.413 0.462,-0.692 0.875,-0.623c0.413,0.07 0.693,0.462 0.623,0.876c-0.07,0.413 -0.462,0.692 -0.875,0.623c-0.414,-0.07 -0.693,-0.462 -0.623,-0.876Z" style="fill:#fcee21;"/><path d="M46.871,29.293c0.252,-1.499 1.674,-2.511 3.172,-2.258c1.499,0.252 2.511,1.674 2.258,3.173c-0.252,1.498 -1.674,2.51 -3.173,2.258c-1.498,-0.253 -2.51,-1.674 -2.257,-3.173Z" style="fill:#ff931e;"/><path d="M43.53,31.777c0.154,-0.913 1.02,-1.529 1.933,-1.375c0.913,0.154 1.529,1.02 1.375,1.933c-0.153,0.913 -1.019,1.529 -1.932,1.375c-0.913,-0.154 -1.53,-1.02 -1.376,-1.933Z" style="fill:#c69c6d;"/><path d="M46.485,34.845c0.21,-1.248 1.395,-2.092 2.644,-1.881c1.248,0.21 2.092,1.395 1.881,2.644c-0.21,1.249 -1.395,2.092 -2.644,1.881c-1.249,-0.21 -2.092,-1.395 -1.881,-2.644Z" style="fill:#fcee21;"/><path d="M62.279,32.905c0.258,-1.533 1.713,-2.568 3.246,-2.31c1.533,0.259 2.568,1.713 2.31,3.246c-0.259,1.533 -1.713,2.568 -3.246,2.31c-1.533,-0.258 -2.568,-1.713 -2.31,-3.246Z" style="fill:#3fa9f5;"/><path d="M68.453,35.868c0.126,-0.749 0.837,-1.255 1.586,-1.129c0.749,0.126 1.255,0.837 1.129,1.586c-0.126,0.75 -0.837,1.255 -1.586,1.129c-0.75,-0.126 -1.255,-0.837 -1.129,-1.586Z" style="fill:#ff931e;"/><path d="M64.977,37.789c0.156,-0.93 1.039,-1.558 1.969,-1.402c0.93,0.157 1.558,1.039 1.401,1.97c-0.156,0.93 -1.039,1.558 -1.969,1.401c-0.93,-0.157 -1.558,-1.039 -1.401,-1.969Z" style="fill:#8cc63f;"/><path d="M58.84,38.048c0.246,-1.464 1.635,-2.453 3.1,-2.206c1.464,0.247 2.452,1.636 2.206,3.1c-0.247,1.464 -1.636,2.452 -3.1,2.206c-1.464,-0.247 -2.453,-1.636 -2.206,-3.1Z" style="fill:#fcee21;"/><path d="M51.208,33.468c0.264,-1.568 1.751,-2.626 3.319,-2.362c1.567,0.264 2.625,1.751 2.361,3.319c-0.264,1.567 -1.751,2.625 -3.318,2.361c-1.568,-0.264 -2.626,-1.751 -2.362,-3.318Z" style="fill:#8cc63f;"/><path d="M58.002,33.197c0.362,-0.852 1.347,-1.251 2.2,-0.889c0.852,0.361 1.251,1.347 0.889,2.199c-0.361,0.852 -1.347,1.251 -2.199,0.89c-0.853,-0.362 -1.251,-1.347 -0.89,-2.2Z" style="fill:#ff931e;"/><path d="M54.095,38.69c0.193,-1.146 1.28,-1.919 2.425,-1.726c1.146,0.193 1.919,1.279 1.726,2.425c-0.193,1.145 -1.279,1.919 -2.425,1.726c-1.146,-0.193 -1.919,-1.28 -1.726,-2.425Z" style="fill:#c69c6d;"/><path d="M50.699,38.113c0.13,-0.775 0.866,-1.298 1.641,-1.168c0.775,0.131 1.298,0.866 1.168,1.641c-0.131,0.775 -0.866,1.299 -1.641,1.168c-0.776,-0.13 -1.299,-0.866 -1.168,-1.641Z" style="fill:#ff931e;"/><path d="M57.003,36.138c0.066,-0.388 0.433,-0.649 0.821,-0.584c0.388,0.065 0.649,0.433 0.584,0.821c-0.065,0.387 -0.433,0.649 -0.821,0.584c-0.387,-0.066 -0.649,-0.433 -0.584,-0.821Z" style="fill:#3fa9f5;"/><path d="M34.765,19.627c0.196,-1.163 1.299,-1.948 2.461,-1.752c1.163,0.195 1.948,1.298 1.752,2.461c-0.196,1.163 -1.299,1.948 -2.461,1.752c-1.163,-0.196 -1.948,-1.299 -1.752,-2.461Z" style="fill:#8cc63f;fill-opacity:0.41;"/><path d="M33.184,35.379c0.099,-0.586 0.655,-0.981 1.24,-0.883c0.586,0.099 0.981,0.655 0.883,1.24c-0.099,0.586 -0.655,0.981 -1.24,0.883c-0.586,-0.099 -0.981,-0.655 -0.883,-1.24Z" style="fill:#8cc63f;fill-opacity:0.3;"/><path d="M36.212,25.004c0.19,-1.129 1.26,-1.89 2.388,-1.7c1.129,0.19 1.89,1.26 1.7,2.388c-0.19,1.129 -1.26,1.89 -2.388,1.7c-1.129,-0.19 -1.89,-1.26 -1.7,-2.388Z" style="fill:#3fa9f5;fill-opacity:0.5;"/><path d="M39.157,30.473c0.619,-0.485 1.515,-0.376 2,0.242c0.485,0.619 0.376,1.515 -0.243,2c-0.619,0.485 -1.515,0.376 -2,-0.243c-0.484,-0.619 -0.376,-1.515 0.243,-1.999Z" style="fill:#8cc63f;fill-opacity:0.5;"/><path d="M30.814,29.906c0.216,-1.283 1.433,-2.15 2.716,-1.934c1.284,0.216 2.15,1.434 1.934,2.717c-0.216,1.284 -1.434,2.15 -2.717,1.934c-1.283,-0.216 -2.15,-1.434 -1.933,-2.717Z" style="fill:#fcee21;fill-opacity:0.44;"/><path d="M37.619,28.671c0.168,-0.356 0.593,-0.507 0.948,-0.339c0.356,0.169 0.507,0.594 0.339,0.949c-0.169,0.355 -0.594,0.507 -0.949,0.338c-0.355,-0.168 -0.507,-0.593 -0.338,-0.948Z" style="fill:#f7931e;fill-opacity:0.41;"/><circle cx="30.936" cy="21.064" r="1.361" style="fill:#f7931e;fill-opacity:0.44;"/><path d="M37.443,32.76c0.462,-0.024 0.857,0.331 0.881,0.793c0.025,0.463 -0.331,0.858 -0.793,0.882c-0.462,0.024 -0.857,-0.331 -0.882,-0.793c-0.024,-0.463 0.331,-0.858 0.794,-0.882Z" style="fill:#f7931e;fill-opacity:0.41;"/><path d="M44.4,35.426c0.072,-0.431 0.481,-0.722 0.911,-0.649c0.431,0.072 0.722,0.481 0.649,0.911c-0.072,0.431 -0.481,0.722 -0.911,0.649c-0.431,-0.072 -0.722,-0.481 -0.649,-0.911Z" style="fill:#f7931e;fill-opacity:0.71;"/><path d="M39.443,35.05c0.276,-0.651 1.029,-0.956 1.681,-0.68c0.651,0.277 0.956,1.03 0.679,1.681c-0.276,0.651 -1.029,0.956 -1.68,0.68c-0.652,-0.276 -0.956,-1.029 -0.68,-1.681Z" style="fill:#3fa9f5;fill-opacity:0.41;"/><path d="M37.932,13.983c0.196,-1.163 1.299,-1.948 2.462,-1.752c1.162,0.196 1.947,1.299 1.751,2.462c-0.195,1.162 -1.298,1.947 -2.461,1.751c-1.163,-0.195 -1.948,-1.298 -1.752,-2.461Z" style="fill:#c69c6d;fill-opacity:0.5;"/><circle cx="34.623" cy="16.174" r="1.598" style="fill:#fcee21;fill-opacity:0.44;"/><circle cx="43.138" cy="10.635" r="1.203" style="fill:#f7931e;fill-opacity:0.41;"/><path d="M32.014,25.012c0.232,-0.547 0.864,-0.802 1.411,-0.57c0.547,0.231 0.802,0.864 0.571,1.41c-0.232,0.547 -0.865,0.803 -1.411,0.571c-0.547,-0.232 -0.803,-0.864 -0.571,-1.411Z" style="fill:#8cc63f;fill-opacity:0.44;"/><path d="M30.001,14.774c0.774,-0.14 1.516,0.375 1.656,1.148c0.14,0.774 -0.375,1.515 -1.148,1.655c-0.774,0.14 -1.515,-0.374 -1.655,-1.147c-0.14,-0.774 0.374,-1.516 1.147,-1.656Z" style="fill:#3fa9f5;fill-opacity:0.3;"/><path d="M27.12,24.987c0.307,-0.723 1.143,-1.062 1.867,-0.755c0.724,0.307 1.062,1.144 0.755,1.868c-0.307,0.723 -1.143,1.062 -1.867,0.755c-0.724,-0.307 -1.062,-1.144 -0.755,-1.868Z" style="fill:#3fa9f5;fill-opacity:0.3;"/><path d="M26.762,28.646c0.181,-0.426 0.674,-0.625 1.1,-0.445c0.426,0.181 0.626,0.674 0.445,1.1c-0.181,0.426 -0.674,0.626 -1.1,0.445c-0.426,-0.181 -0.625,-0.674 -0.445,-1.1Z" style="fill:#f7931e;fill-opacity:0.15;"/><path d="M34.509,11.645c0.1,-0.771 0.807,-1.316 1.578,-1.216c0.771,0.099 1.316,0.806 1.216,1.577c-0.099,0.771 -0.806,1.316 -1.577,1.217c-0.771,-0.1 -1.316,-0.807 -1.217,-1.578Z" style="fill:#8cc63f;fill-opacity:0.41;"/><path d="M26.267,32.367c0.117,-0.698 0.779,-1.169 1.477,-1.051c0.697,0.117 1.168,0.779 1.051,1.477c-0.118,0.697 -0.78,1.168 -1.477,1.051c-0.698,-0.118 -1.169,-0.779 -1.051,-1.477Z" style="fill:#3fa9f5;fill-opacity:0.15;"/><path d="M22.952,23.299c0.845,-0.282 1.76,0.175 2.042,1.021c0.282,0.845 -0.175,1.76 -1.021,2.041c-0.845,0.282 -1.76,-0.175 -2.041,-1.02c-0.282,-0.845 0.175,-1.76 1.02,-2.042Z" style="fill:#8cc63f;fill-opacity:0.15;"/><path d="M26.762,21.493c0.181,-0.426 0.673,-0.626 1.1,-0.445c0.426,0.181 0.625,0.674 0.444,1.1c-0.18,0.426 -0.673,0.625 -1.099,0.445c-0.426,-0.181 -0.626,-0.674 -0.445,-1.1Z" style="fill:#8cc63f;fill-opacity:0.15;"/><path d="M24.328,18.016c0.05,-0.784 0.728,-1.38 1.512,-1.33c0.785,0.051 1.381,0.729 1.33,1.513c-0.05,0.785 -0.728,1.38 -1.513,1.33c-0.784,-0.051 -1.38,-0.729 -1.329,-1.513Z" style="fill:#f7931e;fill-opacity:0.15;"/><path d="M41.958,37.489c0.303,-0.715 1.13,-1.05 1.846,-0.747c0.716,0.304 1.051,1.131 0.747,1.847c-0.303,0.716 -1.131,1.051 -1.847,0.747c-0.715,-0.303 -1.05,-1.131 -0.746,-1.847Z" style="fill:#8cc63f;fill-opacity:0.41;"/></g><g><rect x="5" y="46.322" width="90" height="8.34" style="fill:none;"/><g><path d="M29.637,49.508c-0.079,-0.122 -0.198,-0.223 -0.356,-0.305c-0.158,-0.082 -0.327,-0.123 -0.507,-0.123c-0.195,0 -0.368,0.037 -0.518,0.111c-0.15,0.074 -0.278,0.173 -0.384,0.297c-0.105,0.124 -0.186,0.268 -0.241,0.431c-0.055,0.164 -0.083,0.335 -0.083,0.514c0,0.18 0.028,0.351 0.083,0.515c0.055,0.163 0.136,0.307 0.241,0.431c0.106,0.124 0.235,0.223 0.388,0.297c0.153,0.074 0.327,0.11 0.522,0.11c0.19,0 0.363,-0.036 0.519,-0.11c0.155,-0.074 0.283,-0.174 0.383,-0.301l0.499,0.451c-0.158,0.185 -0.356,0.328 -0.594,0.431c-0.237,0.103 -0.506,0.155 -0.807,0.155c-0.29,0 -0.558,-0.048 -0.803,-0.143c-0.245,-0.095 -0.458,-0.228 -0.637,-0.399c-0.179,-0.172 -0.32,-0.379 -0.423,-0.622c-0.103,-0.242 -0.154,-0.514 -0.154,-0.815c0,-0.295 0.05,-0.564 0.15,-0.807c0.1,-0.242 0.24,-0.451 0.419,-0.625c0.18,-0.174 0.392,-0.308 0.637,-0.403c0.246,-0.095 0.511,-0.143 0.795,-0.143c0.264,0 0.527,0.053 0.788,0.158c0.261,0.106 0.468,0.259 0.621,0.459l-0.538,0.436Z" style="fill:#4d4d4d;fill-rule:nonzero;"/><path d="M34.717,50.425c0,0.291 -0.052,0.557 -0.154,0.8c-0.103,0.242 -0.246,0.452 -0.428,0.629c-0.182,0.176 -0.397,0.314 -0.645,0.411c-0.248,0.098 -0.514,0.147 -0.799,0.147c-0.285,0 -0.551,-0.049 -0.799,-0.147c-0.248,-0.097 -0.462,-0.235 -0.641,-0.411c-0.179,-0.177 -0.32,-0.387 -0.423,-0.629c-0.103,-0.243 -0.155,-0.509 -0.155,-0.8c0,-0.29 0.052,-0.555 0.155,-0.795c0.103,-0.24 0.244,-0.447 0.423,-0.621c0.179,-0.174 0.393,-0.31 0.641,-0.407c0.248,-0.098 0.514,-0.147 0.799,-0.147c0.285,0 0.551,0.049 0.799,0.147c0.248,0.097 0.463,0.233 0.645,0.407c0.182,0.174 0.325,0.381 0.428,0.621c0.102,0.24 0.154,0.505 0.154,0.795Zm-0.776,0c0,-0.179 -0.027,-0.35 -0.083,-0.514c-0.055,-0.163 -0.136,-0.307 -0.241,-0.431c-0.106,-0.124 -0.236,-0.223 -0.392,-0.297c-0.155,-0.074 -0.333,-0.111 -0.534,-0.111c-0.2,0 -0.378,0.037 -0.534,0.111c-0.156,0.074 -0.286,0.173 -0.392,0.297c-0.105,0.124 -0.186,0.268 -0.241,0.431c-0.055,0.164 -0.083,0.335 -0.083,0.514c0,0.18 0.028,0.351 0.083,0.515c0.055,0.163 0.136,0.308 0.241,0.435c0.106,0.127 0.236,0.227 0.392,0.301c0.156,0.074 0.334,0.11 0.534,0.11c0.201,0 0.379,-0.036 0.534,-0.11c0.156,-0.074 0.286,-0.174 0.392,-0.301c0.105,-0.127 0.186,-0.272 0.241,-0.435c0.056,-0.164 0.083,-0.335 0.083,-0.515Z" style="fill:#4d4d4d;fill-rule:nonzero;"/><path d="M38.388,52.309c-0.01,-0.095 -0.018,-0.202 -0.023,-0.321c-0.006,-0.118 -0.008,-0.217 -0.008,-0.296l-0.016,0c-0.095,0.2 -0.255,0.37 -0.479,0.51c-0.224,0.14 -0.473,0.21 -0.748,0.21c-0.242,0 -0.452,-0.04 -0.629,-0.119c-0.176,-0.079 -0.321,-0.189 -0.435,-0.328c-0.113,-0.14 -0.198,-0.303 -0.253,-0.487c-0.055,-0.185 -0.083,-0.383 -0.083,-0.594l0,-2.326l0.744,0l0,2.073c0,0.153 0.012,0.3 0.035,0.439c0.024,0.14 0.068,0.263 0.131,0.368c0.063,0.106 0.15,0.19 0.261,0.254c0.111,0.063 0.253,0.094 0.427,0.094c0.301,0 0.544,-0.112 0.728,-0.336c0.185,-0.224 0.277,-0.523 0.277,-0.898l0,-1.994l0.744,0l0,2.944c0,0.1 0.003,0.229 0.008,0.387c0.005,0.159 0.013,0.298 0.024,0.42l-0.705,0Z" style="fill:#4d4d4d;fill-rule:nonzero;"/><path d="M40.351,49.365c0,-0.1 -0.003,-0.229 -0.008,-0.388c-0.005,-0.158 -0.013,-0.298 -0.024,-0.419l0.704,0c0.011,0.095 0.019,0.204 0.024,0.328c0.005,0.124 0.008,0.226 0.008,0.305l0.024,0c0.105,-0.221 0.26,-0.4 0.463,-0.534c0.203,-0.135 0.431,-0.202 0.684,-0.202c0.116,0 0.214,0.011 0.293,0.032l-0.032,0.688c-0.105,-0.026 -0.219,-0.039 -0.34,-0.039c-0.179,0 -0.335,0.033 -0.467,0.099c-0.132,0.066 -0.241,0.154 -0.328,0.265c-0.087,0.11 -0.152,0.238 -0.194,0.383c-0.042,0.146 -0.063,0.297 -0.063,0.455l0,1.971l-0.744,0l0,-2.944Z" style="fill:#4d4d4d;fill-rule:nonzero;"/><path d="M45.241,49.508c-0.085,-0.138 -0.203,-0.25 -0.356,-0.337c-0.153,-0.087 -0.325,-0.13 -0.515,-0.13c-0.084,0 -0.168,0.009 -0.253,0.027c-0.084,0.019 -0.159,0.048 -0.225,0.087c-0.066,0.04 -0.119,0.09 -0.159,0.151c-0.039,0.06 -0.059,0.136 -0.059,0.225c0,0.159 0.071,0.276 0.214,0.352c0.142,0.077 0.356,0.147 0.641,0.21c0.179,0.042 0.345,0.092 0.498,0.15c0.153,0.058 0.286,0.131 0.4,0.218c0.113,0.087 0.202,0.191 0.265,0.313c0.063,0.121 0.095,0.263 0.095,0.427c0,0.221 -0.042,0.409 -0.127,0.562c-0.084,0.153 -0.196,0.278 -0.336,0.376c-0.14,0.097 -0.299,0.167 -0.479,0.209c-0.179,0.042 -0.364,0.064 -0.554,0.064c-0.285,0 -0.563,-0.056 -0.834,-0.167c-0.272,-0.11 -0.498,-0.279 -0.677,-0.506l0.53,-0.451c0.1,0.148 0.239,0.272 0.416,0.372c0.176,0.1 0.37,0.15 0.581,0.15c0.095,0 0.186,-0.009 0.273,-0.027c0.087,-0.019 0.166,-0.049 0.238,-0.091c0.071,-0.043 0.127,-0.098 0.17,-0.167c0.042,-0.068 0.063,-0.155 0.063,-0.261c0,-0.174 -0.083,-0.303 -0.249,-0.388c-0.166,-0.084 -0.41,-0.163 -0.732,-0.237c-0.127,-0.032 -0.255,-0.07 -0.384,-0.115c-0.129,-0.044 -0.247,-0.106 -0.352,-0.186c-0.106,-0.079 -0.191,-0.178 -0.257,-0.296c-0.066,-0.119 -0.099,-0.265 -0.099,-0.439c0,-0.201 0.041,-0.374 0.122,-0.519c0.082,-0.145 0.189,-0.264 0.321,-0.356c0.132,-0.092 0.282,-0.161 0.451,-0.206c0.169,-0.044 0.343,-0.067 0.522,-0.067c0.269,0 0.529,0.053 0.78,0.158c0.25,0.106 0.444,0.259 0.581,0.459l-0.514,0.436Z" style="fill:#4d4d4d;fill-rule:nonzero;"/><path d="M49.474,50.101c-0.005,-0.148 -0.03,-0.286 -0.075,-0.415c-0.045,-0.13 -0.111,-0.242 -0.198,-0.337c-0.087,-0.095 -0.195,-0.17 -0.324,-0.225c-0.129,-0.056 -0.281,-0.083 -0.455,-0.083c-0.158,0 -0.307,0.027 -0.447,0.083c-0.14,0.055 -0.261,0.13 -0.364,0.225c-0.103,0.095 -0.188,0.207 -0.253,0.337c-0.066,0.129 -0.105,0.267 -0.115,0.415l2.231,0Zm0.752,0.301c0,0.042 0,0.084 0,0.126c0,0.043 -0.003,0.085 -0.008,0.127l-2.975,0c0.005,0.158 0.041,0.307 0.107,0.447c0.066,0.14 0.154,0.261 0.265,0.364c0.11,0.103 0.238,0.183 0.383,0.241c0.146,0.058 0.3,0.087 0.463,0.087c0.254,0 0.472,-0.055 0.657,-0.166c0.185,-0.111 0.33,-0.245 0.435,-0.403l0.523,0.419c-0.201,0.264 -0.437,0.458 -0.709,0.582c-0.271,0.124 -0.573,0.186 -0.906,0.186c-0.285,0 -0.548,-0.048 -0.791,-0.143c-0.243,-0.095 -0.451,-0.228 -0.625,-0.399c-0.174,-0.172 -0.311,-0.379 -0.411,-0.622c-0.101,-0.242 -0.151,-0.511 -0.151,-0.807c0,-0.29 0.049,-0.558 0.147,-0.803c0.097,-0.245 0.233,-0.455 0.407,-0.629c0.174,-0.174 0.38,-0.31 0.617,-0.407c0.238,-0.098 0.493,-0.147 0.768,-0.147c0.274,0 0.523,0.045 0.748,0.135c0.224,0.089 0.414,0.219 0.569,0.387c0.156,0.169 0.276,0.374 0.36,0.614c0.085,0.24 0.127,0.51 0.127,0.811Z" style="fill:#4d4d4d;fill-rule:nonzero;"/><path d="M51.626,49.626c0.106,-0.38 0.275,-0.653 0.507,-0.819c0.232,-0.166 0.483,-0.249 0.752,-0.249c0.026,0 0.05,0 0.071,0c0.021,0 0.045,0.003 0.071,0.008l0,0.15c-0.021,-0.005 -0.041,-0.008 -0.059,-0.008c-0.019,0 -0.033,0 -0.044,0c-0.232,0 -0.43,0.052 -0.593,0.155c-0.164,0.103 -0.298,0.237 -0.404,0.403c-0.105,0.166 -0.183,0.351 -0.233,0.554c-0.05,0.203 -0.075,0.405 -0.075,0.605l0,1.884l-0.175,0l0,-2.722c0,-0.058 -0.001,-0.13 -0.003,-0.214c-0.003,-0.084 -0.006,-0.17 -0.008,-0.257c-0.003,-0.087 -0.007,-0.17 -0.012,-0.249c-0.006,-0.079 -0.011,-0.145 -0.016,-0.198l0.174,0c0.005,0.053 0.009,0.119 0.012,0.198c0.003,0.079 0.005,0.164 0.008,0.257c0.002,0.092 0.005,0.182 0.008,0.269c0.002,0.087 0.004,0.165 0.004,0.233l0.015,0Z" style="fill:#4d4d4d;fill-rule:nonzero;"/><path d="M56.619,51.351c-0.058,0.169 -0.135,0.321 -0.233,0.455c-0.098,0.135 -0.21,0.247 -0.336,0.337c-0.127,0.089 -0.264,0.158 -0.412,0.205c-0.147,0.048 -0.3,0.071 -0.459,0.071c-0.253,0 -0.464,-0.044 -0.633,-0.134c-0.169,-0.09 -0.303,-0.208 -0.403,-0.356c-0.1,-0.148 -0.172,-0.314 -0.214,-0.499c-0.042,-0.184 -0.063,-0.372 -0.063,-0.561l0,-2.2l0.174,0l0,2.184c0,0.153 0.016,0.312 0.047,0.478c0.032,0.167 0.091,0.318 0.178,0.455c0.087,0.138 0.203,0.252 0.349,0.345c0.145,0.092 0.333,0.138 0.565,0.138c0.201,0 0.389,-0.041 0.566,-0.123c0.177,-0.081 0.33,-0.199 0.459,-0.352c0.129,-0.153 0.232,-0.339 0.309,-0.557c0.076,-0.219 0.114,-0.469 0.114,-0.748l0,-1.82l0.174,0l0,2.722c0,0.058 0.002,0.129 0.004,0.213c0.003,0.085 0.006,0.171 0.008,0.258c0.003,0.087 0.007,0.17 0.012,0.249c0.005,0.079 0.011,0.145 0.016,0.198l-0.174,0c-0.005,-0.053 -0.009,-0.119 -0.012,-0.198c-0.003,-0.079 -0.005,-0.165 -0.008,-0.257c-0.003,-0.093 -0.005,-0.182 -0.008,-0.269c-0.002,-0.087 -0.004,-0.165 -0.004,-0.234l-0.016,0Z" style="fill:#4d4d4d;fill-rule:nonzero;"/><path d="M58.661,49.626c0.053,-0.169 0.129,-0.319 0.229,-0.451c0.101,-0.132 0.214,-0.244 0.341,-0.336c0.126,-0.092 0.263,-0.162 0.411,-0.21c0.148,-0.047 0.301,-0.071 0.459,-0.071c0.253,0 0.464,0.045 0.633,0.135c0.169,0.089 0.303,0.208 0.404,0.356c0.1,0.147 0.171,0.314 0.213,0.498c0.042,0.185 0.064,0.372 0.064,0.562l0,2.2l-0.174,0l0,-2.184c0,-0.148 -0.016,-0.306 -0.048,-0.475c-0.032,-0.169 -0.091,-0.322 -0.178,-0.459c-0.087,-0.137 -0.204,-0.252 -0.352,-0.344c-0.148,-0.092 -0.335,-0.139 -0.562,-0.139c-0.2,0 -0.389,0.041 -0.566,0.123c-0.176,0.082 -0.329,0.199 -0.459,0.352c-0.129,0.153 -0.232,0.339 -0.308,0.558c-0.077,0.219 -0.115,0.468 -0.115,0.748l0,1.82l-0.174,0l0,-2.722c0,-0.058 -0.001,-0.13 -0.004,-0.214c-0.003,-0.084 -0.005,-0.17 -0.008,-0.257c-0.003,-0.087 -0.007,-0.17 -0.012,-0.249c-0.005,-0.079 -0.01,-0.145 -0.016,-0.198l0.174,0c0.006,0.053 0.01,0.119 0.012,0.198c0.003,0.079 0.006,0.164 0.008,0.257c0.003,0.092 0.006,0.182 0.008,0.269c0.003,0.087 0.004,0.165 0.004,0.233l0.016,0Z" style="fill:#4d4d4d;fill-rule:nonzero;"/><path d="M63.187,49.626c0.053,-0.169 0.129,-0.319 0.23,-0.451c0.1,-0.132 0.213,-0.244 0.34,-0.336c0.126,-0.092 0.264,-0.162 0.411,-0.21c0.148,-0.047 0.301,-0.071 0.459,-0.071c0.253,0 0.464,0.045 0.633,0.135c0.169,0.089 0.304,0.208 0.404,0.356c0.1,0.147 0.171,0.314 0.213,0.498c0.043,0.185 0.064,0.372 0.064,0.562l0,2.2l-0.174,0l0,-2.184c0,-0.148 -0.016,-0.306 -0.048,-0.475c-0.032,-0.169 -0.091,-0.322 -0.178,-0.459c-0.087,-0.137 -0.204,-0.252 -0.352,-0.344c-0.148,-0.092 -0.335,-0.139 -0.562,-0.139c-0.2,0 -0.389,0.041 -0.566,0.123c-0.176,0.082 -0.329,0.199 -0.459,0.352c-0.129,0.153 -0.232,0.339 -0.308,0.558c-0.077,0.219 -0.115,0.468 -0.115,0.748l0,1.82l-0.174,0l0,-2.722c0,-0.058 -0.001,-0.13 -0.004,-0.214c-0.003,-0.084 -0.005,-0.17 -0.008,-0.257c-0.002,-0.087 -0.006,-0.17 -0.012,-0.249c-0.005,-0.079 -0.01,-0.145 -0.016,-0.198l0.175,0c0.005,0.053 0.009,0.119 0.011,0.198c0.003,0.079 0.006,0.164 0.008,0.257c0.003,0.092 0.006,0.182 0.008,0.269c0.003,0.087 0.004,0.165 0.004,0.233l0.016,0Z" style="fill:#4d4d4d;fill-rule:nonzero;"/><path d="M67.365,50.449c0,0.222 0.033,0.441 0.099,0.657c0.066,0.216 0.166,0.41 0.301,0.582c0.134,0.171 0.304,0.309 0.51,0.415c0.206,0.105 0.448,0.158 0.728,0.158c0.285,0 0.538,-0.056 0.76,-0.17c0.221,-0.113 0.414,-0.278 0.577,-0.494l0.127,0.11c-0.18,0.232 -0.389,0.409 -0.629,0.53c-0.24,0.122 -0.519,0.182 -0.835,0.182c-0.269,0 -0.514,-0.048 -0.736,-0.146c-0.222,-0.097 -0.413,-0.233 -0.574,-0.407c-0.161,-0.174 -0.284,-0.383 -0.372,-0.626c-0.087,-0.242 -0.13,-0.506 -0.13,-0.791c0,-0.274 0.045,-0.527 0.134,-0.759c0.09,-0.233 0.213,-0.433 0.368,-0.602c0.156,-0.169 0.339,-0.299 0.55,-0.391c0.211,-0.093 0.438,-0.139 0.681,-0.139c0.285,0 0.533,0.05 0.744,0.15c0.211,0.101 0.386,0.233 0.526,0.396c0.14,0.164 0.244,0.35 0.312,0.558c0.069,0.208 0.103,0.421 0.103,0.637l0,0.15l-3.244,0Zm3.078,-0.15c-0.005,-0.238 -0.046,-0.454 -0.123,-0.649c-0.076,-0.195 -0.18,-0.363 -0.312,-0.502c-0.132,-0.14 -0.29,-0.248 -0.475,-0.325c-0.185,-0.076 -0.39,-0.115 -0.617,-0.115c-0.274,0 -0.509,0.057 -0.704,0.171c-0.196,0.113 -0.355,0.253 -0.479,0.419c-0.124,0.166 -0.215,0.34 -0.273,0.522c-0.058,0.182 -0.087,0.342 -0.087,0.479l3.07,0Z" style="fill:#4d4d4d;fill-rule:nonzero;"/><path d="M72.113,49.626c0.105,-0.38 0.274,-0.653 0.506,-0.819c0.232,-0.166 0.483,-0.249 0.752,-0.249c0.026,0 0.05,0 0.071,0c0.021,0 0.045,0.003 0.071,0.008l0,0.15c-0.021,-0.005 -0.041,-0.008 -0.059,-0.008c-0.019,0 -0.033,0 -0.044,0c-0.232,0 -0.43,0.052 -0.593,0.155c-0.164,0.103 -0.298,0.237 -0.404,0.403c-0.105,0.166 -0.183,0.351 -0.233,0.554c-0.05,0.203 -0.075,0.405 -0.075,0.605l0,1.884l-0.174,0l0,-2.722c0,-0.058 -0.002,-0.13 -0.004,-0.214c-0.003,-0.084 -0.006,-0.17 -0.008,-0.257c-0.003,-0.087 -0.007,-0.17 -0.012,-0.249c-0.005,-0.079 -0.011,-0.145 -0.016,-0.198l0.174,0c0.005,0.053 0.009,0.119 0.012,0.198c0.003,0.079 0.005,0.164 0.008,0.257c0.003,0.092 0.005,0.182 0.008,0.269c0.003,0.087 0.004,0.165 0.004,0.233l0.016,0Z" style="fill:#4d4d4d;fill-rule:nonzero;"/></g></g><ellipse cx="50.137" cy="54.849" rx="26.289" ry="1.145" style="fill:url(#_Radial1);"/><defs><radialGradient id="_Radial1" cx="0" cy="0" r="1" gradientUnits="userSpaceOnUse" gradientTransform="matrix(26.8434,0,0,1.14485,49.102,54.8487)"><stop offset="0%" style="stop-color:#000;stop-opacity:0.0980392"/><stop offset="100%" style="stop-color:#000;stop-opacity:0"/></radialGradient></defs></svg>