<?xml version="1.0" encoding="UTF-8" standalone="no"?><!DOCTYPE svg PUBLIC "-//W3C//DTD SVG 1.1//EN" "http://www.w3.org/Graphics/SVG/1.1/DTD/svg11.dtd"><svg width="100%" height="100%" viewBox="0 0 231 231" version="1.1" xmlns="http://www.w3.org/2000/svg" xmlns:xlink="http://www.w3.org/1999/xlink" xml:space="preserve" style="fill-rule:evenodd;clip-rule:evenodd;stroke-linejoin:round;stroke-miterlimit:1.41421;"><rect id="Artboard1" x="0" y="0" width="231" height="231" style="fill:none;"/><g id="Layer-1"><g><path d="M186.209,55.024c0,8.013 -6.496,14.509 -14.509,14.509c-8.012,0 -14.509,-6.496 -14.509,-14.509c0,-8.013 6.497,-14.51 14.509,-14.51c8.013,0 14.509,6.497 14.509,14.51" style="fill:#ff931e;fill-rule:nonzero;"/><path d="M182.525,21.257c0,8.979 -7.279,16.258 -16.257,16.258c-8.979,0 -16.258,-7.279 -16.258,-16.258c0,-8.979 7.279,-16.257 16.258,-16.257c8.978,0 16.257,7.278 16.257,16.257" style="fill:#fcee21;fill-rule:nonzero;"/><path d="M208.425,32.106c0,6.599 -5.35,11.949 -11.95,11.949c-6.599,0 -11.949,-5.349 -11.949,-11.949c0,-6.6 5.35,-11.95 11.949,-11.95c6.6,0 11.95,5.35 11.95,11.95" style="fill:#8cc63f;fill-rule:nonzero;"/><path d="M153.192,42.599c0,9.783 -7.931,17.714 -17.714,17.714c-9.784,0 -17.714,-7.931 -17.714,-17.714c0,-9.783 7.93,-17.714 17.714,-17.714c9.783,0 17.714,7.931 17.714,17.714" style="fill:#8cc63f;fill-rule:nonzero;"/><path d="M148.132,10.606c0,5.857 -4.749,10.606 -10.606,10.606c-5.858,0 -10.607,-4.749 -10.607,-10.606c0,-5.858 4.749,-10.606 10.607,-10.606c5.857,0 10.606,4.748 10.606,10.606" style="fill:#ff931e;fill-rule:nonzero;"/><path d="M121.909,20.156c0,8.351 -6.77,15.12 -15.12,15.12c-8.351,0 -15.12,-6.769 -15.12,-15.12c0,-8.351 6.769,-15.12 15.12,-15.12c8.35,0 15.12,6.769 15.12,15.12" style="fill:#fcee21;fill-rule:nonzero;"/><path d="M116.764,53.024c0,8.351 -6.77,15.12 -15.12,15.12c-8.351,0 -15.12,-6.769 -15.12,-15.12c0,-8.351 6.769,-15.12 15.12,-15.12c8.35,0 15.12,6.769 15.12,15.12" style="fill:#3fa9f5;fill-rule:nonzero;"/><path d="M90.534,31.463c0,6.245 -5.062,11.308 -11.307,11.308c-6.245,0 -11.308,-5.063 -11.308,-11.308c0,-6.245 5.063,-11.307 11.308,-11.307c6.245,0 11.307,5.062 11.307,11.307" style="fill:#ff931e;fill-rule:nonzero;"/><path d="M74.607,55.024c0,9.32 -7.555,16.875 -16.875,16.875c-9.32,0 -16.875,-7.555 -16.875,-16.875c0,-9.32 7.555,-16.875 16.875,-16.875c9.32,0 16.875,7.555 16.875,16.875" style="fill:#3fa9f5;fill-rule:nonzero;"/><path d="M92.668,74.067c0,5.581 -4.524,10.105 -10.105,10.105c-5.581,0 -10.105,-4.524 -10.105,-10.105c0,-5.581 4.524,-10.105 10.105,-10.105c5.581,0 10.105,4.524 10.105,10.105" style="fill:#ff931e;fill-rule:nonzero;"/><path d="M79.394,98.956c-1.631,9.679 -10.799,16.203 -20.478,14.572c-9.679,-1.63 -16.203,-10.799 -14.572,-20.477c1.631,-9.679 10.799,-16.203 20.478,-14.573c9.678,1.631 16.202,10.799 14.572,20.478" style="fill:#8cc63f;fill-rule:nonzero;"/><path d="M44.732,78.157c0,4.764 -3.862,8.625 -8.625,8.625c-4.764,0 -8.626,-3.861 -8.626,-8.625c0,-4.764 3.862,-8.625 8.626,-8.625c4.763,0 8.625,3.861 8.625,8.625" style="fill:#3fa9f5;fill-rule:nonzero;"/><path d="M43.599,109.922c-1.095,6.5 -7.252,10.881 -13.751,9.786c-6.5,-1.095 -10.881,-7.252 -9.786,-13.751c1.095,-6.5 7.252,-10.881 13.751,-9.786c6.5,1.095 10.881,7.251 9.786,13.751" style="fill:#ff931e;fill-rule:nonzero;"/><path d="M78.335,128.43c-0.969,5.752 -6.418,9.63 -12.17,8.661c-5.753,-0.97 -9.631,-6.418 -8.662,-12.171c0.97,-5.752 6.418,-9.63 12.171,-8.66c5.752,0.969 9.63,6.418 8.661,12.17" style="fill:#3fa9f5;fill-rule:nonzero;"/><path d="M57.543,143.198c-1.601,9.503 -10.603,15.909 -20.106,14.308c-9.504,-1.601 -15.91,-10.603 -14.309,-20.106c1.602,-9.504 10.603,-15.91 20.107,-14.308c9.503,1.601 15.909,10.603 14.308,20.106" style="fill:#3fa9f5;fill-rule:nonzero;"/><path d="M53.455,117.505c-0.443,2.63 -2.935,4.403 -5.564,3.96c-2.631,-0.443 -4.404,-2.934 -3.961,-5.564c0.443,-2.631 2.935,-4.404 5.565,-3.96c2.63,0.442 4.403,2.934 3.96,5.564" style="fill:#fcee21;fill-rule:nonzero;"/><path d="M91.814,160.65c-1.601,9.503 -10.603,15.909 -20.106,14.308c-9.504,-1.601 -15.91,-10.603 -14.309,-20.106c1.602,-9.504 10.603,-15.91 20.107,-14.308c9.503,1.601 15.909,10.603 14.308,20.106" style="fill:#ff931e;fill-rule:nonzero;"/><path d="M57.148,174.041c-0.969,5.752 -6.418,9.63 -12.17,8.661c-5.753,-0.969 -9.63,-6.418 -8.662,-12.171c0.97,-5.752 6.419,-9.63 12.171,-8.66c5.752,0.969 9.63,6.418 8.661,12.17" style="fill:#c69c6d;fill-rule:nonzero;"/><path d="M83.641,194.767c-1.333,7.914 -8.83,13.249 -16.744,11.916c-7.914,-1.334 -13.248,-8.831 -11.915,-16.744c1.333,-7.914 8.83,-13.249 16.744,-11.916c7.914,1.334 13.248,8.83 11.915,16.744" style="fill:#fcee21;fill-rule:nonzero;"/><path d="M189.909,183.623c-1.631,9.679 -10.799,16.203 -20.478,14.572c-9.678,-1.631 -16.203,-10.799 -14.572,-20.477c1.631,-9.679 10.799,-16.203 20.478,-14.573c9.678,1.631 16.203,10.799 14.572,20.478" style="fill:#3fa9f5;fill-rule:nonzero;"/><path d="M210.983,199.296c-0.798,4.735 -5.283,7.927 -10.019,7.129c-4.735,-0.797 -7.927,-5.283 -7.129,-10.018c0.798,-4.735 5.283,-7.927 10.019,-7.13c4.735,0.798 7.927,5.284 7.129,10.019" style="fill:#ff931e;fill-rule:nonzero;"/><path d="M193.082,212.075c-0.989,5.87 -6.549,9.826 -12.419,8.837c-5.87,-0.988 -9.827,-6.549 -8.838,-12.419c0.989,-5.87 6.549,-9.826 12.419,-8.837c5.87,0.989 9.827,6.549 8.838,12.419" style="fill:#8cc63f;fill-rule:nonzero;"/><path d="M166.651,215.785c-1.562,9.272 -10.346,15.522 -19.618,13.96c-9.272,-1.562 -15.523,-10.345 -13.961,-19.618c1.563,-9.272 10.346,-15.522 19.619,-13.96c9.272,1.562 15.522,10.346 13.96,19.618" style="fill:#fcee21;fill-rule:nonzero;"/><path d="M120.734,187.279c-1.667,9.897 -11.042,16.568 -20.939,14.9c-9.896,-1.667 -16.568,-11.042 -14.9,-20.938c1.667,-9.897 11.042,-16.568 20.939,-14.9c9.896,1.667 16.567,11.042 14.9,20.938" style="fill:#8cc63f;fill-rule:nonzero;"/><path d="M147.249,187.793c-2.277,5.371 -8.477,7.878 -13.848,5.601c-5.37,-2.277 -7.878,-8.477 -5.6,-13.848c2.277,-5.37 8.477,-7.878 13.847,-5.601c5.371,2.278 7.878,8.477 5.601,13.848" style="fill:#ff931e;fill-rule:nonzero;"/><path d="M129.241,218.589c-1.217,7.225 -8.061,12.094 -15.285,10.877c-7.224,-1.217 -12.094,-8.061 -10.877,-15.285c1.217,-7.224 8.06,-12.094 15.285,-10.877c7.225,1.217 12.094,8.06 10.877,15.285" style="fill:#c69c6d;fill-rule:nonzero;"/><path d="M99.424,213.565c-0.828,4.91 -5.479,8.22 -10.388,7.393c-4.91,-0.828 -8.22,-5.478 -7.393,-10.389c0.827,-4.909 5.478,-8.219 10.388,-7.392c4.911,0.827 8.22,5.478 7.393,10.388" style="fill:#ff931e;fill-rule:nonzero;"/><path d="M130.364,199.601c-0.414,2.455 -2.739,4.109 -5.194,3.696c-2.455,-0.414 -4.11,-2.739 -3.696,-5.194c0.413,-2.455 2.739,-4.11 5.194,-3.696c2.455,0.413 4.11,2.739 3.696,5.194" style="fill:#3fa9f5;fill-rule:nonzero;"/></g></g></svg>